<?xml version="1.0" encoding="UTF-8"?>
<svg version="1.1" xmlns="http://www.w3.org/2000/svg" width="313" height="92">
<path d="M0 0 C0.33 0.99 0.66 1.98 1 3 C1.4846875 2.71125 1.969375 2.4225 2.46875 2.125 C7.62258007 -0.72942896 11.11005223 -1.75999326 17 -1 C20.3125 1 20.3125 1 23 3 C25.98709661 3.33128694 25.98709661 3.33128694 27.625 1.5625 C31.20481251 -0.79263981 34.75773676 -1.12498869 39 -1 C42.22570563 0.11433467 44.22650711 0.84676545 46.14575195 3.70825195 C47.2693675 6.72265011 47.24199899 9.26534044 47.23046875 12.48046875 C47.22853516 13.72634766 47.22660156 14.97222656 47.22460938 16.25585938 C47.20624023 18.20202148 47.20624023 18.20202148 47.1875 20.1875 C47.18685547 21.49654297 47.18621094 22.80558594 47.18554688 24.15429688 C47.14021767 33.85978233 47.14021767 33.85978233 46 35 C44.1875 35.1328125 44.1875 35.1328125 42 35.125 C41.278125 35.12757812 40.55625 35.13015625 39.8125 35.1328125 C38 35 38 35 37 34 C36.85465348 32.31746416 36.77282378 30.62934242 36.71875 28.94140625 C36.66267578 27.40323242 36.66267578 27.40323242 36.60546875 25.83398438 C36.55326172 24.21459961 36.55326172 24.21459961 36.5 22.5625 C36.43128385 20.43866202 36.35856667 18.31494853 36.28125 16.19140625 C36.25095703 15.24467041 36.22066406 14.29793457 36.18945312 13.32250977 C36.14338498 10.97592506 36.14338498 10.97592506 35 9 C31.62563814 8.66619186 31.62563814 8.66619186 28 9 C25.90392656 11.08622291 25.07903223 12.42413434 24.67529297 15.3659668 C24.69736816 16.21843994 24.71944336 17.07091309 24.7421875 17.94921875 C24.75636719 18.87927734 24.77054688 19.80933594 24.78515625 20.76757812 C24.81480469 21.73115234 24.84445313 22.69472656 24.875 23.6875 C24.91815697 25.60798527 24.9574366 27.52856298 24.9921875 29.44921875 C25.01651855 30.29830811 25.04084961 31.14739746 25.06591797 32.0222168 C25 34 25 34 24 35 C18.26388889 35.27314815 18.26388889 35.27314815 16 35 C13.43993285 32.43993285 13.71523977 31.36586023 13.62109375 27.80859375 C13.56985352 26.26848633 13.56985352 26.26848633 13.51757812 24.69726562 C13.49115234 23.62154297 13.46472656 22.54582031 13.4375 21.4375 C13.37783323 19.31107786 13.3142487 17.18476076 13.24609375 15.05859375 C13.22216553 14.11298584 13.1982373 13.16737793 13.17358398 12.19311523 C13.24067187 10.02430201 13.24067187 10.02430201 12 9 C8.67457383 8.6305082 6.6946681 8.57079435 3.8125 10.3515625 C0.94444579 14.5423831 1.61742891 18.74459698 1.8125 23.6875 C1.86454187 25.60797208 1.91292399 27.52854806 1.95703125 29.44921875 C1.98772705 30.29830811 2.01842285 31.14739746 2.05004883 32.0222168 C2 34 2 34 1 35 C-0.8125 35.1328125 -0.8125 35.1328125 -3 35.125 C-3.721875 35.12757812 -4.44375 35.13015625 -5.1875 35.1328125 C-7 35 -7 35 -8 34 C-8.14583629 32.3266413 -8.22731612 30.64758552 -8.28125 28.96875 C-8.31863281 27.92976563 -8.35601562 26.89078125 -8.39453125 25.8203125 C-8.42933594 24.72460938 -8.46414062 23.62890625 -8.5 22.5 C-8.73597497 15.28091394 -9.09635703 8.16890092 -10 1 C-6.21812119 -0.83691257 -4.05431692 -1.15837626 0 0 Z " fill="#E87331" transform="translate(101,43)"/>
<path d="M0 0 C2.25 3.0625 2.25 3.0625 4 6 C4.37125 5.484375 4.7425 4.96875 5.125 4.4375 C7 3 7 3 10.0625 3.1875 C13 4 13 4 15 6 C15.32752234 8.71454956 15.1308425 11.25230759 15 14 C14.67 14.33 14.34 14.66 14 15 C10.42034239 14.72464172 7.74813869 14.49448893 4.71875 12.4921875 C1.27876222 10.60414823 -1.34317868 10.52773581 -5.25 10.375 C-10.87820157 10.10489042 -16.40887818 9.686629 -22 9 C-22.66 12.96 -23.32 16.92 -24 21 C-22.50726563 20.91621094 -21.01453125 20.83242188 -19.4765625 20.74609375 C-17.52605683 20.64294201 -15.57553513 20.54009308 -13.625 20.4375 C-12.64015625 20.38142578 -11.6553125 20.32535156 -10.640625 20.26757812 C-9.69960938 20.21923828 -8.75859375 20.17089844 -7.7890625 20.12109375 C-6.48509521 20.05039673 -6.48509521 20.05039673 -5.15478516 19.97827148 C-3 20 -3 20 -1 21 C-1 23.97 -1 26.94 -1 30 C-4.3542639 30.83856598 -6.22794099 31.08073332 -9.546875 30.87890625 C-10.68914551 30.81425171 -10.68914551 30.81425171 -11.85449219 30.74829102 C-12.81000977 30.68697998 -13.76552734 30.62566895 -14.75 30.5625 C-17.8025 30.376875 -20.855 30.19125 -24 30 C-24 36.93 -24 43.86 -24 51 C-27.65912418 51.73182484 -30.36806821 52.20177399 -34 52 C-35.90589814 50.09410186 -35.13060093 46.70155059 -35.1328125 44.17578125 C-35.13376923 43.47793015 -35.13472595 42.78007904 -35.13571167 42.06108093 C-35.13639451 40.57221385 -35.13453305 39.08334384 -35.13037109 37.59448242 C-35.12512816 35.36695183 -35.13025712 33.13963274 -35.13671875 30.91210938 C-35.14105263 27.30425341 -35.09945765 23.69902948 -35.03088379 20.09185791 C-35.01045031 18.70783278 -35.00268485 17.32355715 -35.00817871 15.93939209 C-35.02132939 11.86528794 -34.91527851 7.97870973 -34 4 C-28.85219181 -1.13360734 -22.29482931 -0.6845862 -15.3125 -0.8125 C-14.28060547 -0.85052734 -13.24871094 -0.88855469 -12.18554688 -0.92773438 C-3.16677408 -1.20280402 -3.16677408 -1.20280402 0 0 Z " fill="#E26F35" transform="translate(56,26)"/>
<path d="M0 0 C1.88330078 -0.08203125 1.88330078 -0.08203125 4.63720703 0.13671875 C7.07489921 3.79325702 6.87665142 5.82671976 6.63720703 10.13671875 C5.63720703 11.13671875 5.63720703 11.13671875 3.08251953 11.26953125 C-4.13352205 11.25255233 -11.18685143 10.90215251 -18.36279297 10.13671875 C-18.36279297 14.09671875 -18.36279297 18.05671875 -18.36279297 22.13671875 C-15.99800781 22.01103516 -15.99800781 22.01103516 -13.58544922 21.8828125 C-11.53207749 21.77967511 -9.47869129 21.67682533 -7.42529297 21.57421875 C-6.384375 21.51814453 -5.34345703 21.46207031 -4.27099609 21.40429688 C-3.28164062 21.35595703 -2.29228516 21.30761719 -1.27294922 21.2578125 C-0.35650635 21.21068115 0.55993652 21.1635498 1.50415039 21.11499023 C3.63720703 21.13671875 3.63720703 21.13671875 4.63720703 22.13671875 C4.87449517 28.66214248 4.87449517 28.66214248 3.63720703 31.13671875 C2.49445313 31.11931641 2.49445313 31.11931641 1.32861328 31.1015625 C0.29607422 31.09253906 -0.73646484 31.08351563 -1.80029297 31.07421875 C-2.80962891 31.06261719 -3.81896484 31.05101563 -4.85888672 31.0390625 C-9.06575762 31.15631085 -13.18936468 31.61672565 -17.36279297 32.13671875 C-17.38784912 32.73734131 -17.41290527 33.33796387 -17.4387207 33.95678711 C-17.55434577 36.66283312 -17.67722233 39.36850158 -17.80029297 42.07421875 C-17.85926758 43.49250977 -17.85926758 43.49250977 -17.91943359 44.93945312 C-17.96132812 45.83857422 -18.00322266 46.73769531 -18.04638672 47.6640625 C-18.10137329 48.91304321 -18.10137329 48.91304321 -18.1574707 50.18725586 C-18.36279297 52.13671875 -18.36279297 52.13671875 -19.36279297 53.13671875 C-20.86017421 53.23462445 -22.36222189 53.26646739 -23.86279297 53.26171875 C-24.67748047 53.26429687 -25.49216797 53.266875 -26.33154297 53.26953125 C-28.36279297 53.13671875 -28.36279297 53.13671875 -29.36279297 52.13671875 C-29.45613002 50.54060893 -29.48024669 48.94038447 -29.47631836 47.34155273 C-29.47624283 46.32056992 -29.4761673 45.2995871 -29.47608948 44.24766541 C-29.47092819 43.13726395 -29.46576691 42.02686249 -29.46044922 40.8828125 C-29.45903427 39.75222916 -29.45761932 38.62164581 -29.4561615 37.45680237 C-29.45054316 33.8292481 -29.43798755 30.20175451 -29.42529297 26.57421875 C-29.42028033 24.12174568 -29.41571702 21.66927165 -29.41162109 19.21679688 C-29.40056777 13.1900833 -29.38381181 7.16340536 -29.36279297 1.13671875 C-25.00870735 0.96788961 -20.65451306 0.8020406 -16.30029297 0.63671875 C-15.07117188 0.58902344 -13.84205078 0.54132812 -12.57568359 0.4921875 C-10.20530098 0.4027391 -7.83468743 0.31916865 -5.46386719 0.2421875 C-3.6418433 0.18021975 -1.82003303 0.10531293 0 0 Z " fill="#E37035" transform="translate(183.36279296875,24.86328125)"/>
<path d="M0 0 C5.66685015 2.83342508 9.54724344 7.09448687 12.375 12.75 C13.51249495 18.66497375 13.05586892 23.92736842 10.3125 29.3125 C6.59296666 33.63520091 2.92451076 37.5360559 -3.015625 38.23828125 C-8.94752504 38.43531989 -12.17493182 37.50053966 -17 34 C-22.07811266 28.64739477 -23.49209737 23.81629015 -23.30859375 16.5625 C-22.71577172 11.63982592 -20.96092874 7.7915758 -17.28125 4.4296875 C-11.78371773 0.35312756 -6.80264823 -0.82845287 0 0 Z M-13 13 C-14.60086627 16.20173254 -14.49917089 19.52577059 -14 23 C-12.20636089 25.8100346 -10.98119065 27.50940468 -8 29 C-3.96633723 29.5378217 -2.48380174 29.36553909 0.8125 26.875 C3.24584072 23.67689505 3.91684106 21.99162934 4 18 C2.93894832 13.54358293 0.84813753 11.4162724 -3 9 C-7.60045866 8.07990827 -9.70748103 9.89039875 -13 13 Z " fill="#E77032" transform="translate(284,41)"/>
<path d="M0 0 C3.7207983 2.53014284 5.37967103 5.27696892 7.0703125 9.3828125 C8.1840248 15.55885345 7.94239389 20.8700231 5.0703125 26.5078125 C1.3393881 30.84375166 -2.29994331 34.65101843 -8.22265625 35.46875 C-14.48061925 35.75672706 -18.54492742 34.38200083 -23.2421875 30.1953125 C-27.06766842 26.09127715 -28.56411863 22.29823912 -28.8046875 16.6953125 C-28.47536712 10.09975711 -26.52993689 5.42440165 -21.8046875 0.8203125 C-14.41218678 -3.86761478 -7.62205926 -4.27433127 0 0 Z M-18.359375 10.34765625 C-20.04378586 13.87299403 -19.79640436 16.3157945 -19.2421875 20.1953125 C-17.44854839 23.0053471 -16.22337815 24.70471718 -13.2421875 26.1953125 C-9.37004568 26.62555048 -7.71722379 26.51200336 -4.4296875 24.3203125 C-1.74118727 21.72370689 -1.74118727 21.72370689 -1.1875 18.20703125 C-1.51149647 14.01620735 -1.92187105 11.65694504 -4.3671875 8.1328125 C-7.16818514 5.97445707 -7.16818514 5.97445707 -10.7421875 5.5078125 C-14.48839083 6.24367387 -16.12761704 7.22171712 -18.359375 10.34765625 Z " fill="#E27135" transform="translate(219.2421875,43.8046875)"/>
<path d="M0 0 C2.05078125 0.03255208 4.1015625 0.06510417 6.15234375 0.09765625 C7.2701525 5.50104899 7.31370812 10.74738281 7.3203125 16.23828125 C7.3236409 17.20167419 7.3269693 18.16506714 7.33039856 19.15765381 C7.33544384 21.1848503 7.33780763 23.21205504 7.33764648 25.23925781 C7.33984615 28.35104791 7.35806294 31.46249069 7.37695312 34.57421875 C7.37988484 36.5455717 7.38187112 38.51692634 7.3828125 40.48828125 C7.38999802 41.42158264 7.39718353 42.35488403 7.40458679 43.31646729 C7.40151016 44.17786316 7.39843353 45.03925903 7.39526367 45.92675781 C7.39668869 46.68587463 7.39811371 47.44499146 7.39958191 48.22711182 C7.15234375 50.09765625 7.15234375 50.09765625 5.15234375 52.09765625 C2.4639499 52.36757531 -0.13907561 52.18502982 -2.84765625 52.09765625 C-2.87292364 44.85279074 -2.89048805 37.60793651 -2.90258789 30.36303711 C-2.90762981 27.89623592 -2.91446316 25.42943773 -2.9230957 22.96264648 C-2.9351675 19.42561096 -2.94088581 15.8886148 -2.9453125 12.3515625 C-2.95047379 11.24116104 -2.95563507 10.13075958 -2.96095276 8.98670959 C-2.96102829 7.96572678 -2.96110382 6.94474396 -2.96118164 5.89282227 C-2.96340225 4.98903336 -2.96562286 4.08524445 -2.96791077 3.15406799 C-2.81329024 0.50998049 -2.65348496 0.14024762 0 0 Z " fill="#E07237" transform="translate(233.84765625,25.90234375)"/>
<path d="M0 0 C3.5 0.125 3.5 0.125 4.5 1.125 C4.75188018 4.04805391 4.93207257 6.94548186 5.0625 9.875 C5.1042334 10.78282227 5.1459668 11.69064453 5.18896484 12.62597656 C5.53177713 21.0409688 5.60783282 29.45371614 5.625 37.875 C5.62959229 39.16631836 5.63418457 40.45763672 5.63891602 41.78808594 C5.63690186 42.98723633 5.6348877 44.18638672 5.6328125 45.421875 C5.63168457 46.49791992 5.63055664 47.57396484 5.62939453 48.68261719 C5.5 51.125 5.5 51.125 4.5 52.125 C2.6875 52.2578125 2.6875 52.2578125 0.5 52.25 C-0.221875 52.25257812 -0.94375 52.25515625 -1.6875 52.2578125 C-3.5 52.125 -3.5 52.125 -4.5 51.125 C-4.59846967 49.56500952 -4.62798618 48.00059456 -4.62939453 46.4375 C-4.63254669 45.43976563 -4.63569885 44.44203125 -4.63894653 43.4140625 C-4.6369223 42.32867187 -4.63489807 41.24328125 -4.6328125 40.125 C-4.63376923 39.01898438 -4.63472595 37.91296875 -4.63571167 36.7734375 C-4.63639367 34.42968692 -4.63453804 32.08593447 -4.63037109 29.7421875 C-4.62502314 26.14058212 -4.63031547 22.53910147 -4.63671875 18.9375 C-4.63605797 16.66666639 -4.63477682 14.39583286 -4.6328125 12.125 C-4.63483673 11.03960937 -4.63686096 9.95421875 -4.63894653 8.8359375 C-4.63579437 7.83820312 -4.63264221 6.84046875 -4.62939453 5.8125 C-4.62859894 4.92949219 -4.62780334 4.04648437 -4.62698364 3.13671875 C-4.40501566 -0.37977468 -3.65462699 0.13052239 0 0 Z " fill="#D77039" transform="translate(81.5,25.875)"/>
<path d="M0 0 C2.4375 0.6875 2.4375 0.6875 4.4375 1.6875 C5.25 4 5.25 4 5.4375 6.6875 C4.921875 7.3475 4.40625 8.0075 3.875 8.6875 C3.1634375 9.6775 3.1634375 9.6775 2.4375 10.6875 C2.73309814 11.4000293 3.02869629 12.11255859 3.33325195 12.84667969 C4.72157319 16.41831486 4.67999348 19.31251733 4.66796875 23.140625 C4.66728142 24.19186554 4.66728142 24.19186554 4.6665802 25.26434326 C4.66357256 26.73679307 4.6557311 28.20924013 4.64331055 29.68164062 C4.62494624 31.94412382 4.6228018 34.20619973 4.62304688 36.46875 C4.58508107 47.53991893 4.58508107 47.53991893 3.4375 48.6875 C1.625 48.8203125 1.625 48.8203125 -0.5625 48.8125 C-1.284375 48.81507812 -2.00625 48.81765625 -2.75 48.8203125 C-4.5625 48.6875 -4.5625 48.6875 -5.5625 47.6875 C-5.65097743 45.16655924 -5.67777301 42.67319107 -5.66015625 40.15234375 C-5.6587413 39.39909317 -5.65732635 38.64584259 -5.65586853 37.86976624 C-5.65025376 35.4548044 -5.63769883 33.03993399 -5.625 30.625 C-5.6199869 28.99153779 -5.61542366 27.35807414 -5.61132812 25.72460938 C-5.60027954 21.71220415 -5.58300506 17.69986759 -5.5625 13.6875 C-4.5725 13.3575 -3.5825 13.0275 -2.5625 12.6875 C-3.243125 11.98625 -3.92375 11.285 -4.625 10.5625 C-6.5625 7.6875 -6.5625 7.6875 -6.5 4.5 C-5.27196351 0.81589053 -3.97067499 -0.48422866 0 0 Z " fill="#CB784D" transform="translate(252.5625,29.3125)"/>
<path d="M0 0 C0 0.66 0 1.32 0 2 C0.66 2 1.32 2 2 2 C2 2.99 2 3.98 2 5 C1.01 5 0.02 5 -1 5 C-1.33 6.32 -1.66 7.64 -2 9 C-2.99 8.67 -3.98 8.34 -5 8 C-5.33 7.34 -5.66 6.68 -6 6 C-7.89533342 5.53476937 -7.89533342 5.53476937 -10.0625 5.375 C-11.361875 5.25125 -12.66125 5.1275 -14 5 C-16.2623016 9.22296298 -17.13476288 12.72380101 -17.0625 17.51171875 C-17.05476563 18.35154297 -17.04703125 19.19136719 -17.0390625 20.05664062 C-17.02617188 20.92482422 -17.01328125 21.79300781 -17 22.6875 C-16.97460788 24.42051212 -16.95353507 26.1535948 -16.9375 27.88671875 C-16.92589844 28.65201904 -16.91429688 29.41731934 -16.90234375 30.20581055 C-17 32 -17 32 -18 33 C-23.73611111 33.27314815 -23.73611111 33.27314815 -26 33 C-28 31 -28 31 -28.13525391 29.13989258 C-28.05670166 28.02843872 -28.05670166 28.02843872 -27.9765625 26.89453125 C-27.925 26.07533203 -27.8734375 25.25613281 -27.8203125 24.41210938 C-27.75585938 23.55423828 -27.69140625 22.69636719 -27.625 21.8125 C-27.51130519 20.13162558 -27.39929888 18.45063602 -27.2890625 16.76953125 C-27.23524414 15.96338379 -27.18142578 15.15723633 -27.12597656 14.32666016 C-26.95728013 11.21100698 -26.95778857 8.11942448 -27 5 C-29.97 5 -32.94 5 -36 5 C-36 4.67 -36 4.34 -36 4 C-29.565 3.505 -29.565 3.505 -23 3 C-22.67 2.01 -22.34 1.02 -22 0 C-21.34 1.32 -20.68 2.64 -20 4 C-19.113125 3.525625 -18.22625 3.05125 -17.3125 2.5625 C-14.41092289 1.19383155 -12.12516167 0.52086028 -9 0 C-5.93109813 -1.53445094 -3.29905734 -0.54984289 0 0 Z " fill="#E67337" transform="translate(143,45)"/>
<path d="M0 0 C0.94552734 0.16242187 0.94552734 0.16242187 1.91015625 0.328125 C4.38432627 4.03938003 4.15487248 5.94041295 4.140625 10.3671875 C4.13993767 11.38937881 4.13993767 11.38937881 4.13923645 12.43222046 C4.13621993 13.86954494 4.12835155 15.30686633 4.1159668 16.74414062 C4.09766608 18.95193971 4.09545748 21.15932035 4.09570312 23.3671875 C4.05763685 34.1806444 4.05763685 34.1806444 2.91015625 35.328125 C-2.82595486 35.60127315 -2.82595486 35.60127315 -5.08984375 35.328125 C-7.53062227 32.88734648 -7.32600556 31.57930141 -7.34208679 28.24827576 C-7.33490128 27.56177444 -7.32771576 26.87527313 -7.3203125 26.16796875 C-7.31985428 25.46289688 -7.31939606 24.75782501 -7.31892395 24.03138733 C-7.31590238 22.54100868 -7.30801885 21.05063316 -7.2956543 19.56030273 C-7.27738831 17.27120867 -7.27514466 14.98251873 -7.27539062 12.69335938 C-7.27047581 11.24739231 -7.26464765 9.80142801 -7.2578125 8.35546875 C-7.25669968 7.66694321 -7.25558685 6.97841766 -7.25444031 6.26902771 C-7.190195 -0.11671256 -6.32049641 0.22941911 0 0 Z " fill="#D56C38" transform="translate(67.08984375,42.671875)"/>
<path d="M0 0 C1.88330078 -0.08203125 1.88330078 -0.08203125 4.63720703 0.13671875 C7.07489921 3.79325702 6.87665142 5.82671976 6.63720703 10.13671875 C5.63720703 11.13671875 5.63720703 11.13671875 3.08251953 11.26953125 C-4.13352205 11.25255233 -11.18685143 10.90215251 -18.36279297 10.13671875 C-18.36279297 14.09671875 -18.36279297 18.05671875 -18.36279297 22.13671875 C-12.75279297 22.13671875 -7.14279297 22.13671875 -1.36279297 22.13671875 C-1.69279297 22.79671875 -2.02279297 23.45671875 -2.36279297 24.13671875 C-7.97279297 24.13671875 -13.58279297 24.13671875 -19.36279297 24.13671875 C-19.69279297 18.52671875 -20.02279297 12.91671875 -20.36279297 7.13671875 C-21.68279297 7.46671875 -23.00279297 7.79671875 -24.36279297 8.13671875 C-25.02279297 7.47671875 -25.68279297 6.81671875 -26.36279297 6.13671875 C-27.35279297 7.45671875 -28.34279297 8.77671875 -29.36279297 10.13671875 C-29.36279297 7.16671875 -29.36279297 4.19671875 -29.36279297 1.13671875 C-25.00870735 0.96788961 -20.65451306 0.8020406 -16.30029297 0.63671875 C-15.07117188 0.58902344 -13.84205078 0.54132812 -12.57568359 0.4921875 C-10.20530098 0.4027391 -7.83468743 0.31916865 -5.46386719 0.2421875 C-3.6418433 0.18021975 -1.82003303 0.10531293 0 0 Z " fill="#D67542" transform="translate(183.36279296875,24.86328125)"/>
<path d="M0 0 C2.5625 0.1875 2.5625 0.1875 4.5625 2.1875 C5.5525 2.1875 6.5425 2.1875 7.5625 2.1875 C7.58715622 6.44164623 7.60533899 10.69575498 7.61743164 14.94995117 C7.62247101 16.39820073 7.62930253 17.84644517 7.63793945 19.29467773 C7.65002247 21.37224588 7.65573211 23.44974697 7.66015625 25.52734375 C7.66539307 26.77894287 7.67062988 28.03054199 7.67602539 29.32006836 C7.5625 32.1875 7.5625 32.1875 6.5625 33.1875 C4.75 33.3203125 4.75 33.3203125 2.5625 33.3125 C1.840625 33.31507812 1.11875 33.31765625 0.375 33.3203125 C-1.4375 33.1875 -1.4375 33.1875 -2.4375 32.1875 C-2.60867772 29.90966492 -2.71275348 27.62673301 -2.7890625 25.34375 C-2.81221527 24.65945923 -2.83536804 23.97516846 -2.85922241 23.2701416 C-2.90691301 21.82095891 -2.95214081 20.37169343 -2.99511719 18.92236328 C-3.06222475 16.69662926 -3.1399592 14.47144128 -3.21875 12.24609375 C-3.26366267 10.8411662 -3.30795446 9.43621865 -3.3515625 8.03125 C-3.4127124 6.10055664 -3.4127124 6.10055664 -3.47509766 4.13085938 C-3.42569727 0.26351517 -3.42569727 0.26351517 0 0 Z " fill="#D1733E" transform="translate(95.4375,44.8125)"/>
<path d="M0 0 C2.25 3.0625 2.25 3.0625 4 6 C4.37125 5.484375 4.7425 4.96875 5.125 4.4375 C7 3 7 3 10.0625 3.1875 C13 4 13 4 15 6 C15.32752234 8.71454956 15.1308425 11.25230759 15 14 C14.67 14.33 14.34 14.66 14 15 C10.42034239 14.72464172 7.74813869 14.49448893 4.71875 12.4921875 C1.27876222 10.60414823 -1.34317868 10.52773581 -5.25 10.375 C-10.87820157 10.10489042 -16.40887818 9.686629 -22 9 C-22.66 12.96 -23.32 16.92 -24 21 C-18.39 21 -12.78 21 -7 21 C-7.33 21.66 -7.66 22.32 -8 23 C-10.64590014 23.02684679 -13.29153096 23.04676357 -15.9375 23.0625 C-16.69224609 23.07087891 -17.44699219 23.07925781 -18.22460938 23.08789062 C-20.14994313 23.09652441 -22.07535581 23.05224333 -24 23 C-25 22 -25 22 -25.09765625 18.83984375 C-25.04882812 13.41992188 -25.04882812 13.41992188 -25 8 C-18.4 8 -11.8 8 -5 8 C-5 7.34 -5 6.68 -5 6 C-4.34 6 -3.68 6 -3 6 C-2.34 4.35 -1.68 2.7 -1 1 C-7.27 1 -13.54 1 -20 1 C-20 0.67 -20 0.34 -20 0 C-17.41703983 -0.19522373 -14.83395921 -0.38144403 -12.25 -0.5625 C-11.52039062 -0.61857422 -10.79078125 -0.67464844 -10.0390625 -0.73242188 C-3.24564349 -1.19560953 -3.24564349 -1.19560953 0 0 Z " fill="#CE6F40" transform="translate(56,26)"/>
<path d="M0 0 C0 0.99 0 1.98 0 3 C-2.33214148 4.20628008 -4.49642139 5.1654738 -7 6 C-7 6.66 -7 7.32 -7 8 C-8.65 8 -10.3 8 -12 8 C-12 8.66 -12 9.32 -12 10 C-12.66 10 -13.32 10 -14 10 C-13.97679687 11.05960938 -13.95359375 12.11921875 -13.9296875 13.2109375 C-13.91093056 14.5989513 -13.89273028 15.9869727 -13.875 17.375 C-13.85824219 18.07367188 -13.84148437 18.77234375 -13.82421875 19.4921875 C-13.80655733 21.32897486 -13.89696739 23.16601963 -14 25 C-14.66 25.66 -15.32 26.32 -16 27 C-17.9765625 25.859375 -17.9765625 25.859375 -20 24 C-21.04354754 17.95096169 -20.69889979 10.51025374 -18 5 C-12.67237929 -0.2210683 -7.15850323 -0.66010788 0 0 Z " fill="#E77332" transform="translate(283,43)"/>
<path d="M0 0 C0 8.58 0 17.16 0 26 C-2.64 26 -5.28 26 -8 26 C-9 25 -9 25 -9.0625 21.4375 C-9.041875 20.303125 -9.02125 19.16875 -9 18 C-8.34 18 -7.68 18 -7 18 C-7.05800781 16.95199219 -7.11601562 15.90398437 -7.17578125 14.82421875 C-7.22268131 13.445357 -7.26818122 12.06644713 -7.3125 10.6875 C-7.35439453 9.99720703 -7.39628906 9.30691406 -7.43945312 8.59570312 C-7.48828125 6.57421875 -7.48828125 6.57421875 -7 3 C-4.5884676 1.00546994 -3.1524256 0 0 0 Z " fill="#E87033" transform="translate(147,52)"/>
<path d="M0 0 C1.32 0 2.64 0 4 0 C4 10.23 4 20.46 4 31 C2.02 30.67 0.04 30.34 -2 30 C-2.04939662 26.04903022 -2.08571755 22.0981797 -2.10986328 18.14697266 C-2.12488107 16.1408864 -2.15028981 14.13488676 -2.17578125 12.12890625 C-2.18544922 10.24365234 -2.18544922 10.24365234 -2.1953125 8.3203125 C-2.20578613 7.15773926 -2.21625977 5.99516602 -2.22705078 4.79736328 C-2 2 -2 2 0 0 Z " fill="#E87132" transform="translate(251,46)"/>
<path d="M0 0 C0.99 0 1.98 0 3 0 C2.9278125 0.54785156 2.855625 1.09570312 2.78125 1.66015625 C1.98616097 8.45154174 1.9534023 15.14723162 2.0625 21.97265625 C2 25 2 25 1 26 C-2.72224599 26.29386153 -3.77786243 26.14809171 -7 24 C-6.34 17.4 -5.68 10.8 -5 4 C-3.68 4 -2.36 4 -1 4 C-0.67 2.68 -0.34 1.36 0 0 Z " fill="#E77032" transform="translate(122,51)"/>
<path d="M0 0 C1.125 3.75 1.125 3.75 0 6 C-0.14745376 7.99629703 -0.22113182 9.99847281 -0.25 12 C-0.27578125 13.0725 -0.3015625 14.145 -0.328125 15.25 C-0.21984375 16.1575 -0.1115625 17.065 0 18 C0.99 18.66 1.98 19.32 3 20 C4.99616554 18.00383446 4.40983427 14.18298037 4.5625 11.4375 C4.62727539 10.37112305 4.62727539 10.37112305 4.69335938 9.28320312 C4.79971777 7.52238088 4.90038846 5.7612168 5 4 C5.66 4 6.32 4 7 4 C7 3.34 7 2.68 7 2 C7.99 2.33 8.98 2.66 10 3 C9.505 3.495 9.01 3.99 8.5 4.5 C6.42048062 7.96586564 6.19980027 11.11441476 7 15 C8.83333333 18.16666667 8.83333333 18.16666667 12 20 C14.80730687 20.39956124 17.14153994 20.24224238 20 20 C20 20.66 20 21.32 20 22 C18.18818595 22.19401633 16.37551468 22.38004375 14.5625 22.5625 C13.55316406 22.66691406 12.54382813 22.77132812 11.50390625 22.87890625 C10.67761719 22.91886719 9.85132813 22.95882812 9 23 C8.67 22.67 8.34 22.34 8 22 C8 23.65 8 25.3 8 27 C14.93 27.495 14.93 27.495 22 28 C17.93821288 30.70785808 14.76922854 30.64277456 10 30 C4.21965293 27.91546938 0.73771861 24.04100756 -2.25 18.8125 C-3.76912396 13.11578516 -3.75752951 7.83069631 -1.5 2.375 C-1.005 1.59125 -0.51 0.8075 0 0 Z " fill="#CE7240" transform="translate(264,49)"/>
<path d="M0 0 C2.05078125 0.03255208 4.1015625 0.06510417 6.15234375 0.09765625 C7.66110316 6.13269388 6.79420469 11.99503994 6.15234375 18.09765625 C5.82234375 18.09765625 5.49234375 18.09765625 5.15234375 18.09765625 C4.82234375 12.81765625 4.49234375 7.53765625 4.15234375 2.09765625 C2.83234375 2.09765625 1.51234375 2.09765625 0.15234375 2.09765625 C0.15234375 17.93765625 0.15234375 33.77765625 0.15234375 50.09765625 C1.80234375 50.42765625 3.45234375 50.75765625 5.15234375 51.09765625 C5.15234375 51.42765625 5.15234375 51.75765625 5.15234375 52.09765625 C2.51234375 52.09765625 -0.12765625 52.09765625 -2.84765625 52.09765625 C-2.87292364 44.85279074 -2.89048805 37.60793651 -2.90258789 30.36303711 C-2.90762981 27.89623592 -2.91446316 25.42943773 -2.9230957 22.96264648 C-2.9351675 19.42561096 -2.94088581 15.8886148 -2.9453125 12.3515625 C-2.95047379 11.24116104 -2.95563507 10.13075958 -2.96095276 8.98670959 C-2.96102829 7.96572678 -2.96110382 6.94474396 -2.96118164 5.89282227 C-2.96340225 4.98903336 -2.96562286 4.08524445 -2.96791077 3.15406799 C-2.81329024 0.50998049 -2.65348496 0.14024762 0 0 Z " fill="#C97547" transform="translate(233.84765625,25.90234375)"/>
<path d="M0 0 C0.9583374 0.04713135 1.9166748 0.0942627 2.90405273 0.14282227 C3.93852539 0.19116211 4.97299805 0.23950195 6.03881836 0.28930664 C7.12743164 0.34538086 8.21604492 0.40145508 9.33764648 0.45922852 C10.43012695 0.51143555 11.52260742 0.56364258 12.64819336 0.61743164 C15.35743724 0.74756999 18.06635442 0.88254906 20.77514648 1.02172852 C20.11514648 2.67172852 19.45514648 4.32172852 18.77514648 6.02172852 C18.11514648 6.02172852 17.45514648 6.02172852 16.77514648 6.02172852 C16.77514648 6.68172852 16.77514648 7.34172852 16.77514648 8.02172852 C9.84514648 7.69172852 2.91514648 7.36172852 -4.22485352 7.02172852 C-3.05954549 0.02988034 -3.05954549 0.02988034 0 0 Z " fill="#E96F32" transform="translate(34.224853515625,25.978271484375)"/>
<path d="M0 0 C2.45286296 3.67929445 2.23228878 5.47377907 2.1953125 9.85546875 C2.1924826 10.51710526 2.18965271 11.17874176 2.18673706 11.86042786 C2.17555918 13.96963737 2.15045981 16.07841925 2.125 18.1875 C2.11496707 19.61913448 2.10584176 21.05077564 2.09765625 22.48242188 C2.07562795 25.98841977 2.04111485 29.49416813 2 33 C3.98 33.33 5.96 33.66 8 34 C8 24.1 8 14.2 8 4 C8.66 3.67 9.32 3.34 10 3 C10.02465504 7.39656173 10.04283842 11.7930872 10.05493164 16.18969727 C10.05997121 17.68644918 10.06680287 19.18319616 10.07543945 20.67993164 C10.08752159 22.82699807 10.09323191 24.97399962 10.09765625 27.12109375 C10.10289307 28.4145874 10.10812988 29.70808105 10.11352539 31.04077148 C10 34 10 34 9 35 C7.1875 35.1328125 7.1875 35.1328125 5 35.125 C4.278125 35.12757812 3.55625 35.13015625 2.8125 35.1328125 C1 35 1 35 0 34 C-0.08847743 31.47905924 -0.11527301 28.98569107 -0.09765625 26.46484375 C-0.0962413 25.71159317 -0.09482635 24.95834259 -0.09336853 24.18226624 C-0.08775376 21.7673044 -0.07519883 19.35243399 -0.0625 16.9375 C-0.0574869 15.30403779 -0.05292366 13.67057414 -0.04882812 12.03710938 C-0.03777954 8.02470415 -0.02050506 4.01236759 0 0 Z " fill="#C77448" transform="translate(247,43)"/>
<path d="M0 0 C2.5625 0.1875 2.5625 0.1875 4.5625 2.1875 C5.5525 2.1875 6.5425 2.1875 7.5625 2.1875 C7.64376087 4.27018593 7.70180839 6.35378658 7.75 8.4375 C7.78480469 9.59765625 7.81960937 10.7578125 7.85546875 11.953125 C7.54232934 15.41018407 6.90540892 16.70315563 4.5625 19.1875 C4.2325 18.1975 3.9025 17.2075 3.5625 16.1875 C2.2425 16.5175 0.9225 16.8475 -0.4375 17.1875 C-0.51097656 16.23037109 -0.51097656 16.23037109 -0.5859375 15.25390625 C-0.66070312 14.42761719 -0.73546875 13.60132813 -0.8125 12.75 C-0.88210937 11.92628906 -0.95171875 11.10257813 -1.0234375 10.25390625 C-1.22839844 9.23103516 -1.22839844 9.23103516 -1.4375 8.1875 C-2.0975 7.8575 -2.7575 7.5275 -3.4375 7.1875 C-3.48004356 5.18795254 -3.47830783 3.18708364 -3.4375 1.1875 C-2.4375 0.1875 -2.4375 0.1875 0 0 Z " fill="#E56E32" transform="translate(95.4375,44.8125)"/>
<path d="M0 0 C5.45454545 0.45454545 5.45454545 0.45454545 8 3 C8.32752234 5.71454956 8.1308425 8.25230759 8 11 C7.67 11.33 7.34 11.66 7 12 C2.61691616 11.83460061 0.64234365 11.67528435 -2.4375 8.4375 C-2.953125 7.633125 -3.46875 6.82875 -4 6 C-2.84826645 3.53199953 -1.95216435 1.95216435 0 0 Z " fill="#DF733B" transform="translate(63,29)"/>
<path d="M0 0 C4.27650657 1.52732377 5.94669176 4.03499099 8 8 C8.60111858 11.32850786 8.86650576 14.62259563 9 18 C8.34 17.67 7.68 17.34 7 17 C7 14.69 7 12.38 7 10 C6.01 10.66 5.02 11.32 4 12 C3.01 12.33 2.02 12.66 1 13 C1.04640625 13.60328125 1.0928125 14.2065625 1.140625 14.828125 C1.43910806 21.4373928 1.43910806 21.4373928 -1 24.5625 C-1.66 25.036875 -2.32 25.51125 -3 26 C-3.66 25.67 -4.32 25.34 -5 25 C-4.319375 24.360625 -3.63875 23.72125 -2.9375 23.0625 C-0.55331079 19.29394286 -0.68506456 17.37210342 -1.3828125 13.0859375 C-2.62095877 8.90131656 -5.52329985 7.3178001 -9 5 C-7.68 4.34 -6.36 3.68 -5 3 C-3.5 4.375 -3.5 4.375 -2 6 C-2 6.66 -2 7.32 -2 8 C-0.68 8 0.64 8 2 8 C2.66 7.01 3.32 6.02 4 5 C2.35 5.33 0.7 5.66 -1 6 C-0.67 4.02 -0.34 2.04 0 0 Z " fill="#D17241" transform="translate(218,44)"/>
<path d="M0 0 C0.66 0 1.32 0 2 0 C3.40912096 2.81824192 3.11183553 5.17251282 3.09765625 8.3203125 C3.09443359 9.57714844 3.09121094 10.83398438 3.08789062 12.12890625 C3.07951172 13.44761719 3.07113281 14.76632813 3.0625 16.125 C3.05748489 17.46484211 3.05292201 18.804686 3.04882812 20.14453125 C3.03701086 23.42973206 3.02053617 26.71484397 3 30 C2.67 30 2.34 30 2 30 C2 21.75 2 13.5 2 5 C0.35 5.99 -1.3 6.98 -3 8 C-3.66 8 -4.32 8 -5 8 C-5 12.95 -5 17.9 -5 23 C-5.66 23 -6.32 23 -7 23 C-7.06058594 21.86820313 -7.12117187 20.73640625 -7.18359375 19.5703125 C-7.26799917 18.08852855 -7.35264717 16.6067584 -7.4375 15.125 C-7.47681641 14.37863281 -7.51613281 13.63226563 -7.55664062 12.86328125 C-7.71573624 8.80013136 -7.71573624 8.80013136 -9 5 C-11.32156597 4.59270772 -13.6568787 4.25561323 -16 4 C-16 3.67 -16 3.34 -16 3 C-14.72125 2.938125 -13.4425 2.87625 -12.125 2.8125 C-11.40570313 2.77769531 -10.68640625 2.74289063 -9.9453125 2.70703125 C-9.30335938 2.80371094 -8.66140625 2.90039062 -8 3 C-7.01 4.485 -7.01 4.485 -6 6 C-5.34 6 -4.68 6 -4 6 C-3.67 5.01 -3.34 4.02 -3 3 C-2.01 3 -1.02 3 0 3 C0 2.01 0 1.02 0 0 Z " fill="#C76D3E" transform="translate(145,47)"/>
<path d="M0 0 C0 0.66 0 1.32 0 2 C0.66 2 1.32 2 2 2 C2 2.99 2 3.98 2 5 C1.01 5 0.02 5 -1 5 C-1.33 6.32 -1.66 7.64 -2 9 C-2.99 8.67 -3.98 8.34 -5 8 C-5.33 7.34 -5.66 6.68 -6 6 C-8.35599235 5.53248212 -8.35599235 5.53248212 -11.0625 5.375 C-11.98160156 5.30023438 -12.90070313 5.22546875 -13.84765625 5.1484375 C-14.55792969 5.09945312 -15.26820312 5.05046875 -16 5 C-15.15625 3.04296875 -15.15625 3.04296875 -14 1 C-11.5 0.3125 -11.5 0.3125 -9 0 C-5.93109813 -1.53445094 -3.29905734 -0.54984289 0 0 Z " fill="#E87132" transform="translate(143,45)"/>
<path d="M0 0 C3.3125 2 3.3125 2 6 4 C8.98709661 4.33128694 8.98709661 4.33128694 10.625 2.5625 C14.19201248 0.21578126 17.76852067 -0.15347334 22 0 C25.5625 1.4375 25.5625 1.4375 28 3 C28 3.66 28 4.32 28 5 C27.01 5 26.02 5 25 5 C25 4.34 25 3.68 25 3 C22.03 3 19.06 3 16 3 C15.67 3.66 15.34 4.32 15 5 C12.75 5.5625 12.75 5.5625 10 6 C9.154375 6.268125 8.30875 6.53625 7.4375 6.8125 C6.2309375 6.9053125 6.2309375 6.9053125 5 7 C4.43925781 6.33871094 3.87851563 5.67742188 3.30078125 4.99609375 C1.0717773 2.64761925 1.0717773 2.64761925 -2.453125 2.828125 C-3.70609375 2.96734375 -4.9590625 3.1065625 -6.25 3.25 C-8.14492187 3.44335938 -8.14492187 3.44335938 -10.078125 3.640625 C-11.04234375 3.75921875 -12.0065625 3.8778125 -13 4 C-9.09046644 -0.08723963 -5.62966236 -0.80723278 0 0 Z " fill="#CA774E" transform="translate(118,42)"/>
<path d="M0 0 C5.66685015 2.83342508 9.54724344 7.09448687 12.375 12.75 C13.24834474 17.29139263 12.66484724 21.45388237 12 26 C11.67 26 11.34 26 11 26 C10.67 21.38 10.34 16.76 10 12 C9.01 12 8.02 12 7 12 C6.7525 11.071875 6.505 10.14375 6.25 9.1875 C4.87384617 5.67830772 4.18786776 4.84961611 1 3 C-4.36216066 2.17103087 -10.10491521 1.87734731 -14.75 5 C-15.4925 5.66 -16.235 6.32 -17 7 C-17.66 6.67 -18.32 6.34 -19 6 C-17.89932004 5.18278283 -16.79430269 4.37140549 -15.6875 3.5625 C-15.07261719 3.11003906 -14.45773437 2.65757813 -13.82421875 2.19140625 C-9.55846824 -0.59457641 -4.91514082 -0.5985849 0 0 Z " fill="#C97852" transform="translate(284,41)"/>
<path d="M0 0 C4.875 1.75 4.875 1.75 6 4 C5.34 4 4.68 4 4 4 C4.18464366 8.34184202 4.18464366 8.34184202 6 12 C6.07226502 13.85287502 6.0838122 15.70833878 6.0625 17.5625 C6.05347656 18.57441406 6.04445313 19.58632813 6.03515625 20.62890625 C6.02355469 21.41136719 6.01195312 22.19382812 6 23 C5.34 23 4.68 23 4 23 C4.04125 21.948125 4.0825 20.89625 4.125 19.8125 C3.97766328 15.31873018 3.53658401 12.48170601 0.25 9.3125 C-2.40672759 7.76274224 -5.05680563 6.86958016 -8 6 C-7.67 5.34 -7.34 4.68 -7 4 C-4.67843403 3.59270772 -2.3431213 3.25561323 0 3 C0 2.01 0 1.02 0 0 Z " fill="#D3723E" transform="translate(283,43)"/>
<path d="M0 0 C0.94875 0.04125 1.8975 0.0825 2.875 0.125 C3.205 0.785 3.535 1.445 3.875 2.125 C1.895 2.455 -0.085 2.785 -2.125 3.125 C-2.15005615 3.72562256 -2.1751123 4.32624512 -2.20092773 4.94506836 C-2.3165528 7.65111437 -2.43942936 10.35678283 -2.5625 13.0625 C-2.62147461 14.48079102 -2.62147461 14.48079102 -2.68164062 15.92773438 C-2.72353516 16.82685547 -2.76542969 17.72597656 -2.80859375 18.65234375 C-2.86358032 19.90132446 -2.86358032 19.90132446 -2.91967773 21.17553711 C-3.125 23.125 -3.125 23.125 -4.125 24.125 C-5.64428038 24.19679964 -7.16667482 24.20892007 -8.6875 24.1875 C-9.51378906 24.17847656 -10.34007812 24.16945313 -11.19140625 24.16015625 C-12.14853516 24.14275391 -12.14853516 24.14275391 -13.125 24.125 C-13.125 23.795 -13.125 23.465 -13.125 23.125 C-10.485 23.125 -7.845 23.125 -5.125 23.125 C-5.13547363 22.49932129 -5.14594727 21.87364258 -5.15673828 21.22900391 C-5.19823191 18.4027099 -5.22430473 15.57647989 -5.25 12.75 C-5.27513672 11.27273437 -5.27513672 11.27273437 -5.30078125 9.765625 C-5.30722656 8.82460938 -5.31367188 7.88359375 -5.3203125 6.9140625 C-5.33078613 6.04475098 -5.34125977 5.17543945 -5.35205078 4.27978516 C-4.95800893 0.54020087 -3.58842777 0.14353711 0 0 Z " fill="#CA7445" transform="translate(168.125,53.875)"/>
<path d="M0 0 C0 0.66 0 1.32 0 2 C2.31 2.33 4.62 2.66 7 3 C6.01 3.495 6.01 3.495 5 4 C5 4.99 5 5.98 5 7 C2.5595659 8.53656962 1.29255898 9.02089707 -1.625 8.8125 C-4 8 -4 8 -6 5 C-5.8125 2.875 -5.8125 2.875 -5 1 C-2 0 -2 0 0 0 Z " fill="#E7712F" transform="translate(207,41)"/>
<path d="M0 0 C0.66 0 1.32 0 2 0 C2.02887236 3.81248426 2.04675492 7.6249407 2.0625 11.4375 C2.07087891 12.52611328 2.07925781 13.61472656 2.08789062 14.73632812 C2.09111328 15.77080078 2.09433594 16.80527344 2.09765625 17.87109375 C2.10289307 18.82943115 2.10812988 19.78776855 2.11352539 20.77514648 C2 23 2 23 1 24 C-4.8410596 24.37086093 -4.8410596 24.37086093 -7 24 C-7.66 23.01 -8.32 22.02 -9 21 C-6.36 21.33 -3.72 21.66 -1 22 C-1.00523682 21.40461426 -1.01047363 20.80922852 -1.01586914 20.19580078 C-1.03661999 17.50554453 -1.04965407 14.81530511 -1.0625 12.125 C-1.07506836 10.71927734 -1.07506836 10.71927734 -1.08789062 9.28515625 C-1.09111328 8.38925781 -1.09433594 7.49335937 -1.09765625 6.5703125 C-1.10289307 5.74289551 -1.10812988 4.91547852 -1.11352539 4.06298828 C-1 2 -1 2 0 0 Z " fill="#C56F42" transform="translate(124,54)"/>
<path d="M0 0 C0.33 0.66 0.66 1.32 1 2 C2.65 2 4.3 2 6 2 C6.33 4.31 6.66 6.62 7 9 C3.37 8.67 -0.26 8.34 -4 8 C-3.34 6.02 -2.68 4.04 -2 2 C-1.34 2 -0.68 2 0 2 C0 1.34 0 0.68 0 0 Z " fill="#EA6F31" transform="translate(181,25)"/>
<path d="M0 0 C0.99 0.66 1.98 1.32 3 2 C3 2.66 3 3.32 3 4 C3.66 4.33 4.32 4.66 5 5 C5 5.66 5 6.32 5 7 C6.32 7 7.64 7 9 7 C8.67 8.32 8.34 9.64 8 11 C5.25 11.375 5.25 11.375 2 11 C-0.5 8.3125 -0.5 8.3125 -2 5 C-1.25 2.125 -1.25 2.125 0 0 Z " fill="#E87130" transform="translate(197,64)"/>
<path d="M0 0 C0.66 0 1.32 0 2 0 C2.33 2.64 2.66 5.28 3 8 C-3.15234375 8.09765625 -3.15234375 8.09765625 -5 8 C-6 7 -6 7 -6.0625 3.9375 C-6.041875 2.968125 -6.02125 1.99875 -6 1 C-3.03 1.495 -3.03 1.495 0 2 C0 1.34 0 0.68 0 0 Z " fill="#E47232" transform="translate(144,70)"/>
<path d="M0 0 C0.66 0.33 1.32 0.66 2 1 C2 1.33 2 1.66 2 2 C2.66 2 3.32 2 4 2 C4.33 1.34 4.66 0.68 5 0 C5 0.99 5 1.98 5 3 C6.32 2.67 7.64 2.34 9 2 C7.55922954 5.36179774 5.75249979 7.59156268 3 10 C2.34 10 1.68 10 1 10 C0.67 9.01 0.34 8.02 0 7 C-2.50447516 5.78130071 -2.50447516 5.78130071 -5 5 C-3.68 4.67 -2.36 4.34 -1 4 C-0.67 2.68 -0.34 1.36 0 0 Z " fill="#D97139" transform="translate(285,67)"/>
<path d="M0 0 C2.85328164 3.95069765 5 8.08606672 5 13 C4.01 12.34 3.02 11.68 2 11 C-0.62531524 10.83286431 -0.62531524 10.83286431 -3 11 C-2.01 10.67 -1.02 10.34 0 10 C-0.33 7.36 -0.66 4.72 -1 2 C-7.27 1.67 -13.54 1.34 -20 1 C-20 0.67 -20 0.34 -20 0 C-17.41703983 -0.19522373 -14.83395921 -0.38144403 -12.25 -0.5625 C-11.52039062 -0.61857422 -10.79078125 -0.67464844 -10.0390625 -0.73242188 C-6.4809757 -0.9750187 -3.38587642 -1.18096452 0 0 Z " fill="#B17152" transform="translate(56,26)"/>
<path d="M0 0 C0.75 1.625 0.75 1.625 1 4 C-1.92418676 9.49747111 -5.99840903 13.99946968 -12 16 C-14.12109375 16.203125 -14.12109375 16.203125 -16.4375 16.25 C-17.19933594 16.27578125 -17.96117187 16.3015625 -18.74609375 16.328125 C-21.531453 15.92263076 -22.8981141 14.81940009 -25 13 C-24.25234375 13.0721875 -23.5046875 13.144375 -22.734375 13.21875 C-21.25710937 13.35796875 -21.25710937 13.35796875 -19.75 13.5 C-18.77546875 13.5928125 -17.8009375 13.685625 -16.796875 13.78125 C-14.53697847 13.95800168 -12.26679807 14 -10 14 C-10 13.34 -10 12.68 -10 12 C-9.01 12 -8.02 12 -7 12 C-6.67 10.68 -6.34 9.36 -6 8 C-5.34 8 -4.68 8 -4 8 C-4 7.34 -4 6.68 -4 6 C-3.34 5.67 -2.68 5.34 -2 5 C-1.27840576 3.35636866 -0.60648579 1.68949614 0 0 Z " fill="#CA7748" transform="translate(225,63)"/>
<path d="M0 0 C1.51400391 0.01740234 1.51400391 0.01740234 3.05859375 0.03515625 C4.07050781 0.04417969 5.08242187 0.05320313 6.125 0.0625 C7.29869141 0.07990234 7.29869141 0.07990234 8.49609375 0.09765625 C9.38560625 7.93905105 9.49829912 15.26503584 8.49609375 23.09765625 C8.16609375 23.09765625 7.83609375 23.09765625 7.49609375 23.09765625 C7.4710376 22.49703369 7.44598145 21.89641113 7.42016602 21.27758789 C7.30454095 18.57154188 7.18166439 15.86587342 7.05859375 13.16015625 C7.01927734 12.21462891 6.97996094 11.26910156 6.93945312 10.29492188 C6.89755859 9.39580078 6.85566406 8.49667969 6.8125 7.5703125 C6.77584229 6.73765869 6.73918457 5.90500488 6.70141602 5.04711914 C6.70242272 3.09426767 6.70242272 3.09426767 5.49609375 2.09765625 C0.8313129 1.67358526 -1.68854631 2.404461 -5.50390625 5.09765625 C-3.09571996 0.12073791 -3.09571996 0.12073791 0 0 Z " fill="#B6714A" transform="translate(107.50390625,49.90234375)"/>
<path d="M0 0 C0.66 0 1.32 0 2 0 C2 3.63 2 7.26 2 11 C3.32 11.33 4.64 11.66 6 12 C5.67 12.66 5.34 13.32 5 14 C5.76501555 15.79540511 5.76501555 15.79540511 6.9375 17.625 C7.618125 18.73875 8.29875 19.8525 9 21 C4.93767103 19.25528179 3.21900687 17.1715848 0.97265625 13.44140625 C-0.77169653 9.06301071 -0.38276815 4.62724163 0 0 Z " fill="#C57240" transform="translate(191,55)"/>
<path d="M0 0 C1.32 0 2.64 0 4 0 C4.99 1.98 5.98 3.96 7 6 C4.33333333 6.66666667 1.66666667 7.33333333 -1 8 C-1.33 6.02 -1.66 4.04 -2 2 C-1.34 2 -0.68 2 0 2 C0 1.34 0 0.68 0 0 Z " fill="#E88D58" transform="translate(250,40)"/>
<path d="M0 0 C0.33 0.99 0.66 1.98 1 3 C1.66 3.33 2.32 3.66 3 4 C1.68 4 0.36 4 -1 4 C-1.33 4.99 -1.66 5.98 -2 7 C-2.33 5.68 -2.66 4.36 -3 3 C-4.65 3 -6.3 3 -8 3 C-8 4.98 -8 6.96 -8 9 C-9.61949011 6.42786866 -10.04408751 5.32330841 -9.625 2.25 C-9.41875 1.5075 -9.2125 0.765 -9 0 C-5.67465243 -1.10844919 -3.37817425 -0.84454356 0 0 Z " fill="#D27A52" transform="translate(101,43)"/>
<path d="M0 0 C2.97 0.495 2.97 0.495 6 1 C6 2.65 6 4.3 6 6 C3.69 6 1.38 6 -1 6 C-1.33 5.01 -1.66 4.02 -2 3 C-1.34 3 -0.68 3 0 3 C0 2.01 0 1.02 0 0 Z " fill="#E77135" transform="translate(250,32)"/>
<path d="M0 0 C4.875 1.875 4.875 1.875 6 3 C6.1328125 4.8125 6.1328125 4.8125 6.125 7 C6.12757812 7.721875 6.13015625 8.44375 6.1328125 9.1875 C6 11 6 11 5 12 C2.66055264 11.71269945 0.3260857 11.38063221 -2 11 C-2 10.67 -2 10.34 -2 10 C-0.35 9.67 1.3 9.34 3 9 C3.33 7.02 3.66 5.04 4 3 C2.68 2.67 1.36 2.34 0 2 C0 1.34 0 0.68 0 0 Z " fill="#B06F4C" transform="translate(65,29)"/>
<path d="M0 0 C2 1.5 2 1.5 3 3 C1.845 2.979375 0.69 2.95875 -0.5 2.9375 C-4.74350547 2.92992231 -8.80176644 3.40025235 -13 4 C-9.07121543 -0.10736569 -5.65554569 -0.69393199 0 0 Z " fill="#DC8966" transform="translate(118,42)"/>
<path d="M0 0 C2 2 2 2 2.1953125 5.0390625 C2.17210937 6.22242188 2.14890625 7.40578125 2.125 8.625 C2.10695312 9.81351563 2.08890625 11.00203125 2.0703125 12.2265625 C2.04710937 13.14179687 2.02390625 14.05703125 2 15 C1.01 15.495 1.01 15.495 0 16 C-0.1958009 14.08416353 -0.38132214 12.16727461 -0.5625 10.25 C-0.66691406 9.18265625 -0.77132812 8.1153125 -0.87890625 7.015625 C-0.98560074 4.35858796 -0.81930395 2.50039428 0 0 Z " fill="#D67147" transform="translate(155,40)"/>
<path d="M0 0 C0.66 0.33 1.32 0.66 2 1 C2 3.31 2 5.62 2 8 C0.35 8.66 -1.3 9.32 -3 10 C-2.88637738 8.5199159 -2.75877092 7.04089926 -2.625 5.5625 C-2.55539063 4.73878906 -2.48578125 3.91507812 -2.4140625 3.06640625 C-2.27742188 2.38449219 -2.14078125 1.70257813 -2 1 C-1.34 0.67 -0.68 0.34 0 0 Z " fill="#E86E2D" transform="translate(97,68)"/>
<path d="M0 0 C2.475 0.495 2.475 0.495 5 1 C4.67 3.64 4.34 6.28 4 9 C2.68 9 1.36 9 0 9 C0 6.03 0 3.06 0 0 Z " fill="#D5703F" transform="translate(50,46)"/>
<path d="M0 0 C0.66 0 1.32 0 2 0 C2 0.66 2 1.32 2 2 C3.32 2.33 4.64 2.66 6 3 C6 4.98 6 6.96 6 9 C4.35 8.67 2.7 8.34 1 8 C1.66 7.67 2.32 7.34 3 7 C3 6.34 3 5.68 3 5 C2.34 5 1.68 5 1 5 C0.67 3.35 0.34 1.7 0 0 Z " fill="#E76A31" transform="translate(63,29)"/>
<path d="M0 0 C3.96 0 7.92 0 12 0 C12 0.33 12 0.66 12 1 C9.03 1 6.06 1 3 1 C2.34 5.29 1.68 9.58 1 14 C0.67 14 0.34 14 0 14 C0 9.38 0 4.76 0 0 Z " fill="#B16238" transform="translate(31,34)"/>
<path d="M0 0 C1.32 0 2.64 0 4 0 C5.50875941 6.03503763 4.64186094 11.89738369 4 18 C3.67 18 3.34 18 3 18 C2.86722656 16.86820313 2.73445312 15.73640625 2.59765625 14.5703125 C2.4194658 13.08851821 2.24106971 11.60674864 2.0625 10.125 C1.97548828 9.37863281 1.88847656 8.63226563 1.79882812 7.86328125 C1.36673937 3.8046769 1.36673937 3.8046769 0 0 Z " fill="#C96B41" transform="translate(236,26)"/>
<path d="M0 0 C0.33 0 0.66 0 1 0 C1.33 6.6 1.66 13.2 2 20 C2.66 20 3.32 20 4 20 C4 20.66 4 21.32 4 22 C2.68 21.67 1.36 21.34 0 21 C0 14.07 0 7.14 0 0 Z " fill="#B8794C" transform="translate(21,56)"/>
<path d="M0 0 C1.3805087 3.76668598 0.59568159 6.44789173 -0.4375 10.25 C-0.72496094 11.32765625 -1.01242187 12.4053125 -1.30859375 13.515625 C-1.53675781 14.33546875 -1.76492188 15.1553125 -2 16 C-2.33 16 -2.66 16 -3 16 C-3.32712342 9.86946489 -3.39366878 5.37330889 0 0 Z " fill="#D48156" transform="translate(264,49)"/>
<path d="M0 0 C0.66 0.99 1.32 1.98 2 3 C1.34 3.66 0.68 4.32 0 5 C-0.16687448 7.58354218 -0.16687448 7.58354218 0 10 C-0.99 9.67 -1.98 9.34 -3 9 C-3 8.34 -3 7.68 -3 7 C-3.66 6.67 -4.32 6.34 -5 6 C-3.35 4.02 -1.7 2.04 0 0 Z " fill="#E6572D" transform="translate(198,44)"/>
<path d="M0 0 C0.86625 0.804375 1.7325 1.60875 2.625 2.4375 C5.62876093 4.96924136 8.03203262 5.71657376 12 6 C12 6.33 12 6.66 12 7 C8.7 7 5.4 7 2 7 C2 6.34 2 5.68 2 5 C1.01 4.67 0.02 4.34 -1 4 C-0.67 2.68 -0.34 1.36 0 0 Z " fill="#C96E42" transform="translate(200,64)"/>
<path d="M0 0 C2.875 -0.1875 2.875 -0.1875 6 0 C8.4294516 3.6441774 8.16179575 5.71241272 8 10 C7.67 10 7.34 10 7 10 C6.34 7.36 5.68 4.72 5 2 C3.35 2 1.7 2 0 2 C0 1.34 0 0.68 0 0 Z " fill="#B87248" transform="translate(182,25)"/>
<path d="M0 0 C3.35620271 1.38877354 5.07298728 2.91677965 7 6 C7 6.66 7 7.32 7 8 C6.34 8 5.68 8 5 8 C5 7.01 5 6.02 5 5 C3.02 5.33 1.04 5.66 -1 6 C-0.67 4.02 -0.34 2.04 0 0 Z " fill="#C97243" transform="translate(218,44)"/>
<path d="M0 0 C0 0.66 0 1.32 0 2 C0.99 2.33 1.98 2.66 3 3 C0 4 0 4 -3 3 C-3.33 3.99 -3.66 4.98 -4 6 C-4.66 5.67 -5.32 5.34 -6 5 C-5.6875 3.0625 -5.6875 3.0625 -5 1 C-2 0 -2 0 0 0 Z " fill="#E56333" transform="translate(207,41)"/>
<path d="M0 0 C0.33 0 0.66 0 1 0 C1.28875 1.11375 1.5775 2.2275 1.875 3.375 C2.69241329 7.00291092 2.69241329 7.00291092 5 9 C4.625 11.125 4.625 11.125 4 13 C0.47726246 8.48649253 -0.45732667 5.71658336 0 0 Z " fill="#D07041" transform="translate(262,61)"/>
<path d="M0 0 C1.98 0.99 1.98 0.99 4 2 C2.79618552 4.49361571 1.54571278 6.68143083 0 9 C0 6.03 0 3.06 0 0 Z " fill="#DE834A" transform="translate(154,26)"/>
<path d="M0 0 C0.99 0.495 0.99 0.495 2 1 C2.625 3.0625 2.625 3.0625 3 5 C5.97 5.495 5.97 5.495 9 6 C9 6.33 9 6.66 9 7 C2.84765625 7.09765625 2.84765625 7.09765625 1 7 C0 6 0 6 -0.0625 2.9375 C-0.041875 1.968125 -0.02125 0.99875 0 0 Z " fill="#C27B47" transform="translate(138,71)"/>
<path d="M0 0 C0.66 0 1.32 0 2 0 C2 1.98 2 3.96 2 6 C0.68 5.67 -0.64 5.34 -2 5 C-1.34 3.35 -0.68 1.7 0 0 Z " fill="#D9723F" transform="translate(29,72)"/>
<path d="M0 0 C0.33 0.66 0.66 1.32 1 2 C2.65 1.67 4.3 1.34 6 1 C6.33 2.32 6.66 3.64 7 5 C6.01 5.66 5.02 6.32 4 7 C4 5.68 4 4.36 4 3 C2.68 3 1.36 3 0 3 C0 2.01 0 1.02 0 0 Z " fill="#DA753E" transform="translate(122,47)"/>
<path d="M0 0 C1.32 0 2.64 0 4 0 C4 0.66 4 1.32 4 2 C3.01 2.66 2.02 3.32 1 4 C0.74969023 6.58380177 0.74969023 6.58380177 1 9 C-0.61949011 6.42786866 -1.04408751 5.32330841 -0.625 2.25 C-0.41875 1.5075 -0.2125 0.765 0 0 Z " fill="#C36B4C" transform="translate(92,43)"/>
<path d="M0 0 C0.99 0.33 1.98 0.66 3 1 C2.01 1.33 1.02 1.66 0 2 C0 2.66 0 3.32 0 4 C-0.99 4.33 -1.98 4.66 -3 5 C-3.66 4.34 -4.32 3.68 -5 3 C-2.6875 1.4375 -2.6875 1.4375 0 0 Z " fill="#C0673B" transform="translate(29,26)"/>
<path d="M0 0 C-0.66 1.65 -1.32 3.3 -2 5 C-3.32 4.34 -4.64 3.68 -6 3 C-6 2.34 -6 1.68 -6 1 C-3 0 -3 0 0 0 Z " fill="#EE702F" transform="translate(222,49)"/>
</svg>
